<?xml version="1.0" encoding="utf-8"?>
<!-- Generator: Adobe Illustrator 21.0.0, SVG Export Plug-In . SVG Version: 6.00 Build 0)  -->
<svg version="1.1" id="Layer_1" xmlns="http://www.w3.org/2000/svg" xmlns:xlink="http://www.w3.org/1999/xlink" x="0px" y="0px"
	 viewBox="0 0 1000 1000" style="enable-background:new 0 0 1000 1000;" xml:space="preserve">
<style type="text/css">
	.st0{display:none;}
	.st1{display:inline;}
</style>
<g>
	<g class="st0">
		<path class="st1" d="M237,729.5c-9.8,0-17.2,6.9-17.2,16.1c0,8.5,5.9,14.6,13.9,14.6c2.8,0,5.6-1,7.3-2.8l0.6,0.1
			c-0.3,0.8-0.9,1.5-2.1,3.2l-11.4,15.1h10.1c1.2-1.5,8.1-10.4,9.6-12.6c4.6-6.5,6.5-11.6,6.5-17.1
			C254.4,736.3,247.3,729.5,237,729.5z M237.2,753.6c-4.8,0-8.4-3.5-8.4-8.3c0-4.7,3.6-8.2,8.4-8.2s8.4,3.5,8.4,8.2
			C245.6,750,242,753.6,237.2,753.6z"/>
	</g>
	<g class="st0">
		<polygon class="st1" points="289.5,730.4 280.7,730.4 268.4,738.7 268.4,747.1 280.1,739.3 280.7,739.3 280.7,768.5 268.4,768.5 
			268.4,775.9 280.7,775.9 289.5,775.9 301.1,775.9 301.1,768.5 289.5,768.5 		"/>
	</g>
	<g class="st0">
		<path class="st1" d="M337.9,752.2v-0.6c4.9-1.2,8-5,8-9.8c0-7.2-6.7-12.3-16.1-12.3s-16.1,5.1-16.1,12.3c0,4.8,3.1,8.6,8,9.8v0.6
			c-6,1.4-9.9,5.9-9.9,11.5c0,7.9,7.2,13.2,17.9,13.2c10.7,0,17.9-5.3,17.9-13.2C347.8,758,343.9,753.5,337.9,752.2z M329.9,736.2
			c4.4,0,7.3,2.6,7.3,6.4c0,3.8-2.9,6.4-7.3,6.4s-7.3-2.6-7.3-6.4S325.5,736.2,329.9,736.2z M329.9,770c-5.2,0-8.7-2.9-8.7-7.2
			s3.5-7.2,8.7-7.2c5.1,0,8.6,2.9,8.6,7.2S335,770,329.9,770z"/>
	</g>
	<g class="st0">
		<path class="st1" d="M378.4,762.5c-3.8,0-7,3.2-7,7s3.2,7,7,7s7-3.2,7-7S382.2,762.5,378.4,762.5z"/>
	</g>
	<g class="st0">
		<path class="st1" d="M429.7,751.8l-6.1-1.4c-6.2-1.4-8.7-3.6-8.7-7.6c0-4.7,4-7.7,10.3-7.7c5.8,0,9.9,2.7,10.8,7.1h5.4
			c-1-7.1-7.2-11.7-16.1-11.7c-9.5,0-16,5.1-16,12.5c0,6.2,3.9,10.1,12,12l6.7,1.6c6.2,1.5,8.6,3.7,8.6,7.8c0,5-4.3,8.1-11.1,8.1
			c-6.3,0-10.7-2.7-11.8-7.4H408c0.8,7.4,7.5,12.1,17.3,12.1c10.3,0,17.1-5.2,17.1-13.2C442.3,757.7,438.4,753.8,429.7,751.8z"/>
	</g>
	<g class="st0">
		<path class="st1" d="M471.9,730.5c-11.7,0-19.2,7.8-19.2,20v6.7c0,12.2,7.5,20,19.2,20s19.2-7.8,19.2-20v-6.7
			C491,738.3,483.5,730.5,471.9,730.5z M485.5,756.5c0,9.8-5.3,15.8-13.7,15.8s-13.7-6-13.7-15.8v-5.3c0-9.8,5.3-15.8,13.7-15.8
			s13.7,6,13.7,15.8V756.5z"/>
	</g>
	<g class="st0">
		<path class="st1" d="M512.3,726v5.2h-12.2v4.7h12.2v40.6h5.5v-40.6h20.6v-4.7h-20.6v-5c0-5.1,3.7-7.7,10.9-7.7
			c3.1,0,7.4,0.2,9.7,0.5v-4.6c-1.8-0.3-6.6-0.6-9.7-0.6C517.9,713.8,512.3,718,512.3,726z"/>
	</g>
	<g class="st0">
		<path class="st1" d="M563.7,719.5h-5.5v11.8H546v4.7h12.2v27.5c0,8.9,5.4,13.3,16.3,13.3c2.6,0,6.8-0.3,8.2-0.5v-4.7
			c-1.5,0.2-4.8,0.3-7.9,0.3c-7.2,0-11-3-11-8.6V736h18.9v-4.7h-18.9L563.7,719.5L563.7,719.5z"/>
	</g>
	<g class="st0">
		<polygon class="st1" points="623.6,769.6 623.1,769.6 614.8,731.2 609.2,731.2 601,769.6 600.5,769.6 593.3,731.2 587.8,731.2 
			597.8,776.5 603.5,776.5 611.8,738.9 612.3,738.9 620.6,776.5 626.2,776.5 636.2,731.2 630.8,731.2 		"/>
	</g>
	<g class="st0">
		<path class="st1" d="M658.4,730.9c-8.7,0-15.5,4.8-16.4,11.6h5.5c1.3-4.4,5.2-6.8,10.9-6.8c6.9,0,10.7,3.5,10.7,10v4.3l-13.1,0.6
			c-10,0.5-15.7,5.2-15.7,13.1c0,8.2,5.8,13.6,14.5,13.6c6.8,0,11.8-2.8,14-7.9h0.6v7.1h5.3v-31.1
			C674.6,736.2,668.7,730.9,658.4,730.9z M669.1,760.9c0,6.5-5.7,11.6-13,11.6c-6.3,0-10.1-3.3-10.1-8.7c0-5.3,3.6-8.3,10.4-8.6
			l12.7-0.5L669.1,760.9L669.1,760.9z"/>
	</g>
	<g class="st0">
		<path class="st1" d="M703.8,742.8h-0.6v-11.5h-15.6v4.5h10.3V772h-9.3v4.5h9.3h5.5h14.4V772h-14.4v-15.9c0-12.4,6.2-20.3,16-20.3
			c2.4,0,5.3,0.5,7.4,1.3v-6c-1.4-0.6-4-1-6.6-1C711.3,730.1,705.3,734.7,703.8,742.8z"/>
	</g>
	<g class="st0">
		<path class="st1" d="M752.7,730.5c-11.2,0-18.6,7.8-18.6,19.7v6.6c0,12.9,7.1,20.4,19.2,20.4c9.1,0,16-4.7,17.5-11.9h-5.5
			c-1.4,4.4-5.9,7-12.1,7c-8.4,0-13.7-6-13.7-15.5v-1.6H771v-3.6C771,738.2,764.3,730.5,752.7,730.5z M739.6,750.8
			c0-9.7,4.9-15.4,13.1-15.4c8,0,12.8,5.8,12.8,15.4H739.6z"/>
	</g>
	<g>
		<path d="M627.4,464.7c-13.9,0-27,7.5-29.4,16.6l-14.5,53.9c-2.5,9.1,6.6,16.6,20.5,16.6c13.7,0,27-7.5,29.4-16.6l14.5-53.9
			C650.4,472.1,641.1,464.7,627.4,464.7z"/>
	</g>
	<g>
		<path d="M639.7,339.5c-13.9,0-27,7.5-29.4,16.6L595.8,410c-2.5,9.1,6.6,16.6,20.5,16.6c13.7,0,27-7.5,29.4-16.6l14.5-53.9
			C662.7,346.9,653.4,339.5,639.7,339.5z"/>
	</g>
	<g>
		<path d="M747.1,223.5H241.4c-13.4,0-24.3,9-24.3,20v406c0,11.1,10.9,20,24.3,20h505.7c13.4,0,24.3-9,24.3-20v-406
			C771.5,232.5,760.6,223.5,747.1,223.5z M375.9,460l-26.8,99.4c-0.4,1.5-2.4,2.8-4.9,2.8h-8.3c-2.3,0-3.8-1.2-3.4-2.8l27.9-101.5
			c2.3-2.5,6.4-3.9,10.2-3.3C374.5,455,376.6,457.4,375.9,460z M407.9,356.1L393.4,410c-4.1,15.2-26.1,27.7-49,27.7
			c-23.1,0-38.2-12.4-34.1-27.7l14.5-53.9c4.1-15.2,25.9-27.7,49-27.7C396.7,328.4,412,340.8,407.9,356.1z M502.7,460l-26.8,99.4
			c-0.4,1.5-2.4,2.8-4.9,2.8h-8.3c-2.3,0-3.8-1.2-3.4-2.8l27.9-101.5c2.3-2.5,6.4-3.9,10.2-3.3C501.3,455,503.4,457.4,502.7,460z
			 M515.2,333.9l-26.8,99.4c-0.4,1.5-2.4,2.8-4.9,2.8h-8.3c-2.3,0-3.8-1.2-3.4-2.8l27.9-101.5c2.3-2.5,6.4-3.9,10.2-3.3
			C513.8,328.9,515.9,331.3,515.2,333.9z M664.5,481.3L650,535.2c-4.1,15.2-26.1,27.7-49,27.7c-23.1,0-38.2-12.4-34.1-27.7
			l14.5-53.9c4.1-15.2,25.9-27.7,49-27.7C653.3,453.6,668.6,466.1,664.5,481.3z M676.8,356.1L662.3,410c-4.1,15.2-26.1,27.7-49,27.7
			c-23.1,0-38.2-12.4-34.1-27.7l14.5-53.9c4.1-15.2,25.9-27.7,49-27.7C665.6,328.4,680.9,340.8,676.8,356.1z"/>
	</g>
</g>
<g>
	<g class="st0">
		<path class="st1" d="M-31.3,730c-9.8,0-17.2,6.9-17.2,16.1c0,8.5,5.9,14.6,13.9,14.6c2.8,0,5.6-1,7.3-2.8l0.6,0.1
			c-0.3,0.8-0.9,1.5-2.1,3.2l-11.4,15.1h10.1c1.2-1.5,8.1-10.4,9.6-12.6c4.6-6.5,6.5-11.6,6.5-17.1C-13.9,736.8-21,730-31.3,730z
			 M-31.1,754.1c-4.8,0-8.4-3.5-8.4-8.3c0-4.7,3.6-8.2,8.4-8.2s8.4,3.5,8.4,8.2C-22.7,750.5-26.3,754.1-31.1,754.1z"/>
	</g>
	<g class="st0">
		<polygon class="st1" points="21.2,730.9 12.4,730.9 0.1,739.2 0.1,747.6 11.8,739.8 12.4,739.8 12.4,769 0.1,769 0.1,776.4 
			12.4,776.4 21.2,776.4 32.8,776.4 32.8,769 21.2,769 		"/>
	</g>
	<g class="st0">
		<path class="st1" d="M69.6,752.7v-0.6c4.9-1.2,8-5,8-9.8c0-7.2-6.7-12.3-16.1-12.3s-16.1,5.1-16.1,12.3c0,4.8,3.1,8.6,8,9.8v0.6
			c-6,1.4-9.9,5.9-9.9,11.5c0,7.9,7.2,13.2,17.9,13.2c10.7,0,17.9-5.3,17.9-13.2C79.5,758.5,75.6,754,69.6,752.7z M61.6,736.7
			c4.4,0,7.3,2.6,7.3,6.4c0,3.8-2.9,6.4-7.3,6.4s-7.3-2.6-7.3-6.4S57.2,736.7,61.6,736.7z M61.6,770.5c-5.2,0-8.7-2.9-8.7-7.2
			s3.5-7.2,8.7-7.2c5.1,0,8.6,2.9,8.6,7.2S66.7,770.5,61.6,770.5z"/>
	</g>
	<g class="st0">
		<path class="st1" d="M110.1,763c-3.8,0-7,3.2-7,7s3.2,7,7,7s7-3.2,7-7S113.9,763,110.1,763z"/>
	</g>
	<g class="st0">
		<path class="st1" d="M161.4,752.3l-6.1-1.4c-6.2-1.4-8.7-3.6-8.7-7.6c0-4.7,4-7.7,10.3-7.7c5.8,0,9.9,2.7,10.8,7.1h5.4
			c-1-7.1-7.2-11.7-16.1-11.7c-9.5,0-16,5.1-16,12.5c0,6.2,3.9,10.1,12,12l6.7,1.6c6.2,1.5,8.6,3.7,8.6,7.8c0,5-4.3,8.1-11.1,8.1
			c-6.3,0-10.7-2.7-11.8-7.4h-5.7c0.8,7.4,7.5,12.1,17.3,12.1c10.3,0,17.1-5.2,17.1-13.2C174,758.2,170.1,754.3,161.4,752.3z"/>
	</g>
	<g class="st0">
		<path class="st1" d="M203.6,731c-11.7,0-19.2,7.8-19.2,20v6.7c0,12.2,7.5,20,19.2,20s19.2-7.8,19.2-20V751
			C222.7,738.8,215.2,731,203.6,731z M217.2,757c0,9.8-5.3,15.8-13.7,15.8s-13.7-6-13.7-15.8v-5.3c0-9.8,5.3-15.8,13.7-15.8
			s13.7,6,13.7,15.8V757z"/>
	</g>
	<g class="st0">
		<path class="st1" d="M244,726.5v5.2h-12.2v4.7H244V777h5.5v-40.6h20.6v-4.7h-20.6v-5c0-5.1,3.7-7.7,10.9-7.7
			c3.1,0,7.4,0.2,9.7,0.5v-4.6c-1.8-0.3-6.6-0.6-9.7-0.6C249.6,714.3,244,718.5,244,726.5z"/>
	</g>
	<g class="st0">
		<path class="st1" d="M295.4,720h-5.5v11.8h-12.2v4.7h12.2V764c0,8.9,5.4,13.3,16.3,13.3c2.6,0,6.8-0.3,8.2-0.5v-4.7
			c-1.5,0.2-4.8,0.3-7.9,0.3c-7.2,0-11-3-11-8.6v-27.3h18.9v-4.7h-18.9L295.4,720L295.4,720z"/>
	</g>
	<g class="st0">
		<polygon class="st1" points="355.3,770.1 354.8,770.1 346.5,731.7 340.9,731.7 332.7,770.1 332.2,770.1 325,731.7 319.5,731.7 
			329.5,777 335.2,777 343.5,739.4 344,739.4 352.3,777 357.9,777 367.9,731.7 362.5,731.7 		"/>
	</g>
	<g class="st0">
		<path class="st1" d="M390.1,731.4c-8.7,0-15.5,4.8-16.4,11.6h5.5c1.3-4.4,5.2-6.8,10.9-6.8c6.9,0,10.7,3.5,10.7,10v4.3l-13.1,0.6
			c-10,0.5-15.7,5.2-15.7,13.1c0,8.2,5.8,13.6,14.5,13.6c6.8,0,11.8-2.8,14-7.9h0.6v7.1h5.3v-31.1
			C406.3,736.7,400.4,731.4,390.1,731.4z M400.8,761.4c0,6.5-5.7,11.6-13,11.6c-6.3,0-10.1-3.3-10.1-8.7c0-5.3,3.6-8.3,10.4-8.6
			l12.7-0.5L400.8,761.4L400.8,761.4z"/>
	</g>
	<g class="st0">
		<path class="st1" d="M435.5,743.3h-0.6v-11.5h-15.6v4.5h10.3v36.2h-9.3v4.5h9.3h5.5h14.4v-4.5h-14.4v-15.9
			c0-12.4,6.2-20.3,16-20.3c2.4,0,5.3,0.5,7.4,1.3v-6c-1.4-0.6-4-1-6.6-1C443,730.6,437,735.2,435.5,743.3z"/>
	</g>
	<g class="st0">
		<path class="st1" d="M484.4,731c-11.2,0-18.6,7.8-18.6,19.7v6.6c0,12.9,7.1,20.4,19.2,20.4c9.1,0,16-4.7,17.5-11.9H497
			c-1.4,4.4-5.9,7-12.1,7c-8.4,0-13.7-6-13.7-15.5v-1.6h31.5v-3.6C502.7,738.7,496,731,484.4,731z M471.3,751.3
			c0-9.7,4.9-15.4,13.1-15.4c8,0,12.8,5.8,12.8,15.4H471.3z"/>
	</g>
	<g class="st0">
		<path class="st1" d="M359.1,465.2c-13.9,0-27,7.5-29.4,16.6l-14.5,53.9c-2.5,9.1,6.6,16.6,20.5,16.6c13.7,0,27-7.5,29.4-16.6
			l14.5-53.9C382.1,472.6,372.8,465.2,359.1,465.2z"/>
	</g>
	<g>
		<path d="M371.4,340c-13.9,0-27,7.5-29.4,16.6l-14.5,53.9c-2.5,9.1,6.6,16.6,20.5,16.6c13.7,0,27-7.5,29.4-16.6l14.5-53.9
			C394.4,347.4,385.1,340,371.4,340z"/>
	</g>
	<g class="st0">
		<path class="st1" d="M478.8,224H-26.9c-13.4,0-24.3,9-24.3,20v406c0,11.1,10.9,20,24.3,20h505.7c13.4,0,24.3-9,24.3-20V244
			C503.2,233,492.3,224,478.8,224z M107.6,460.5l-26.8,99.4c-0.4,1.5-2.4,2.8-4.9,2.8h-8.3c-2.3,0-3.8-1.2-3.4-2.8l27.9-101.5
			c2.3-2.5,6.4-3.9,10.2-3.3C106.2,455.5,108.3,457.9,107.6,460.5z M139.6,356.6l-14.5,53.9c-4.1,15.2-26.1,27.7-49,27.7
			c-23.1,0-38.2-12.4-34.1-27.7l14.5-53.9c4.1-15.2,25.9-27.7,49-27.7C128.4,328.9,143.7,341.3,139.6,356.6z M234.4,460.5
			l-26.8,99.4c-0.4,1.5-2.4,2.8-4.9,2.8h-8.3c-2.3,0-3.8-1.2-3.4-2.8l27.9-101.5c2.3-2.5,6.4-3.9,10.2-3.3
			C233,455.5,235.1,457.9,234.4,460.5z M246.9,334.4l-26.8,99.4c-0.4,1.5-2.4,2.8-4.9,2.8h-8.3c-2.3,0-3.8-1.2-3.4-2.8l27.9-101.5
			c2.3-2.5,6.4-3.9,10.2-3.3C245.5,329.4,247.6,331.8,246.9,334.4z M396.2,481.8l-14.5,53.9c-4.1,15.2-26.1,27.7-49,27.7
			c-23.1,0-38.2-12.4-34.1-27.7l14.5-53.9c4.1-15.2,25.9-27.7,49-27.7C385,454.1,400.3,466.6,396.2,481.8z M408.5,356.6L394,410.5
			c-4.1,15.2-26.1,27.7-49,27.7c-23.1,0-38.2-12.4-34.1-27.7l14.5-53.9c4.1-15.2,25.9-27.7,49-27.7
			C397.3,328.9,412.6,341.3,408.5,356.6z"/>
	</g>
</g>
</svg>
