<?xml version="1.0" encoding="utf-8"?>
<!-- Generator: Adobe Illustrator 21.1.0, SVG Export Plug-In . SVG Version: 6.00 Build 0)  -->
<svg version="1.1" id="Layer_1" xmlns="http://www.w3.org/2000/svg" xmlns:xlink="http://www.w3.org/1999/xlink" x="0px" y="0px"
	 viewBox="0 0 566.7 566.7" style="enable-background:new 0 0 566.7 566.7;" xml:space="preserve">
<g>
	<g>
		<path d="M26,511.8c-9.8,0-17.2,6.9-17.2,16.1c0,8.5,5.9,14.6,13.9,14.6c2.8,0,5.6-1,7.3-2.8l0.6,0.1c-0.3,0.8-0.9,1.5-2.1,3.2
			l-11.4,15.1h10.1c1.2-1.5,8.1-10.4,9.6-12.6c4.6-6.5,6.5-11.6,6.5-17.1C43.4,518.6,36.3,511.8,26,511.8z M26.2,535.9
			c-4.8,0-8.4-3.5-8.4-8.3c0-4.7,3.6-8.2,8.4-8.2s8.4,3.5,8.4,8.2C34.6,532.3,31,535.9,26.2,535.9z"/>
	</g>
	<g>
		<polygon points="78.5,512.7 69.7,512.7 57.4,521 57.4,529.4 69.1,521.6 69.7,521.6 69.7,550.8 57.4,550.8 57.4,558.2 69.7,558.2 
			78.5,558.2 90.1,558.2 90.1,550.8 78.5,550.8 		"/>
	</g>
	<g>
		<path d="M126.9,534.5v-0.6c4.9-1.2,8-5,8-9.8c0-7.2-6.7-12.3-16.1-12.3s-16.1,5.1-16.1,12.3c0,4.8,3.1,8.6,8,9.8v0.6
			c-6,1.4-9.9,5.9-9.9,11.5c0,7.9,7.2,13.2,17.9,13.2c10.7,0,17.9-5.3,17.9-13.2C136.8,540.3,132.9,535.8,126.9,534.5z M118.9,518.5
			c4.4,0,7.3,2.6,7.3,6.4c0,3.8-2.9,6.4-7.3,6.4s-7.3-2.6-7.3-6.4S114.5,518.5,118.9,518.5z M118.9,552.3c-5.2,0-8.7-2.9-8.7-7.2
			s3.5-7.2,8.7-7.2c5.1,0,8.6,2.9,8.6,7.2S124,552.3,118.9,552.3z"/>
	</g>
	<g>
		<path d="M167.4,544.8c-3.8,0-7,3.2-7,7s3.2,7,7,7s7-3.2,7-7S171.2,544.8,167.4,544.8z"/>
	</g>
	<g>
		<path d="M218.7,534.1l-6.1-1.4c-6.2-1.4-8.7-3.6-8.7-7.6c0-4.7,4-7.7,10.3-7.7c5.8,0,9.9,2.7,10.8,7.1h5.4
			c-1-7.1-7.2-11.7-16.1-11.7c-9.5,0-16,5.1-16,12.5c0,6.2,3.9,10.1,12,12l6.7,1.6c6.2,1.5,8.6,3.7,8.6,7.8c0,5-4.3,8.1-11.1,8.1
			c-6.3,0-10.7-2.7-11.8-7.4H197c0.8,7.4,7.5,12.1,17.3,12.1c10.3,0,17.1-5.2,17.1-13.2C231.3,540,227.4,536.1,218.7,534.1z"/>
	</g>
	<g>
		<path d="M260.9,512.8c-11.7,0-19.2,7.8-19.2,20v6.7c0,12.2,7.5,20,19.2,20s19.2-7.8,19.2-20v-6.7
			C280,520.6,272.5,512.8,260.9,512.8z M274.5,538.8c0,9.8-5.3,15.8-13.7,15.8s-13.7-6-13.7-15.8v-5.3c0-9.8,5.3-15.8,13.7-15.8
			s13.7,6,13.7,15.8V538.8z"/>
	</g>
	<g>
		<path d="M301.3,508.3v5.2h-12.2v4.7h12.2v40.6h5.5v-40.6h20.6v-4.7h-20.6v-5c0-5.1,3.7-7.7,10.9-7.7c3.1,0,7.4,0.2,9.7,0.5v-4.6
			c-1.8-0.3-6.6-0.6-9.7-0.6C306.9,496.1,301.3,500.3,301.3,508.3z"/>
	</g>
	<g>
		<path d="M352.7,501.8h-5.5v11.8H335v4.7h12.2v27.5c0,8.9,5.4,13.3,16.3,13.3c2.6,0,6.8-0.3,8.2-0.5v-4.7c-1.5,0.2-4.8,0.3-7.9,0.3
			c-7.2,0-11-3-11-8.6v-27.3h18.9v-4.7h-18.9L352.7,501.8L352.7,501.8z"/>
	</g>
	<g>
		<polygon points="412.6,551.9 412.1,551.9 403.8,513.5 398.2,513.5 390,551.9 389.5,551.9 382.3,513.5 376.8,513.5 386.8,558.8 
			392.5,558.8 400.8,521.2 401.3,521.2 409.6,558.8 415.2,558.8 425.2,513.5 419.8,513.5 		"/>
	</g>
	<g>
		<path d="M447.4,513.2c-8.7,0-15.5,4.8-16.4,11.6h5.5c1.3-4.4,5.2-6.8,10.9-6.8c6.9,0,10.7,3.5,10.7,10v4.3l-13.1,0.6
			c-10,0.5-15.7,5.2-15.7,13.1c0,8.2,5.8,13.6,14.5,13.6c6.8,0,11.8-2.8,14-7.9h0.6v7.1h5.3v-31.1
			C463.6,518.5,457.7,513.2,447.4,513.2z M458.1,543.2c0,6.5-5.7,11.6-13,11.6c-6.3,0-10.1-3.3-10.1-8.7c0-5.3,3.6-8.3,10.4-8.6
			l12.7-0.5L458.1,543.2L458.1,543.2z"/>
	</g>
	<g>
		<path d="M492.8,525.1h-0.6v-11.5h-15.6v4.5h10.3v36.2h-9.3v4.5h9.3h5.5h14.4v-4.5h-14.4v-15.9c0-12.4,6.2-20.3,16-20.3
			c2.4,0,5.3,0.5,7.4,1.3v-6c-1.4-0.6-4-1-6.6-1C500.3,512.4,494.3,517,492.8,525.1z"/>
	</g>
	<g>
		<path d="M541.7,512.8c-11.2,0-18.6,7.8-18.6,19.7v6.6c0,12.9,7.1,20.4,19.2,20.4c9.1,0,16-4.7,17.5-11.9h-5.5
			c-1.4,4.4-5.9,7-12.1,7c-8.4,0-13.7-6-13.7-15.5v-1.6H560v-3.6C560,520.5,553.3,512.8,541.7,512.8z M528.6,533.1
			c0-9.7,4.9-15.4,13.1-15.4c8,0,12.8,5.8,12.8,15.4H528.6z"/>
	</g>
	<g>
		<path d="M416.4,247c-13.9,0-27,7.5-29.4,16.6l-14.5,53.9c-2.5,9.1,6.6,16.6,20.5,16.6c13.7,0,27-7.5,29.4-16.6l14.5-53.9
			C439.4,254.4,430.1,247,416.4,247z"/>
	</g>
	<g>
		<path d="M428.7,121.8c-13.9,0-27,7.5-29.4,16.6l-14.5,53.9c-2.5,9.1,6.6,16.6,20.5,16.6c13.7,0,27-7.5,29.4-16.6l14.5-53.9
			C451.7,129.2,442.4,121.8,428.7,121.8z"/>
	</g>
	<g>
		<path d="M159.8,121.8c-13.9,0-27,7.5-29.4,16.6l-14.5,53.9c-2.5,9.1,6.6,16.6,20.5,16.6c13.7,0,27-7.5,29.4-16.6l14.5-53.9
			C182.7,129.2,173.5,121.8,159.8,121.8z"/>
	</g>
	<g>
		<path d="M536.1,5.8H30.4c-13.4,0-24.3,9-24.3,20v406c0,11.1,10.9,20,24.3,20h505.7c13.4,0,24.3-9,24.3-20v-406
			C560.5,14.8,549.6,5.8,536.1,5.8z M164.9,242.3l-26.8,99.4c-0.4,1.5-2.4,2.8-4.9,2.8h-8.3c-2.3,0-3.8-1.2-3.4-2.8l27.9-101.5
			c2.3-2.5,6.4-3.9,10.2-3.3C163.5,237.3,165.6,239.7,164.9,242.3z M196.9,138.4l-14.5,53.9c-4.1,15.2-26.1,27.7-49,27.7
			c-23.1,0-38.2-12.4-34.1-27.7l14.5-53.9c4.1-15.2,25.9-27.7,49-27.7C185.7,110.7,201,123.1,196.9,138.4z M291.7,242.3l-26.8,99.4
			c-0.4,1.5-2.4,2.8-4.9,2.8h-8.3c-2.3,0-3.8-1.2-3.4-2.8l27.9-101.5c2.3-2.5,6.4-3.9,10.2-3.3C290.3,237.3,292.4,239.7,291.7,242.3
			z M304.2,116.2l-26.8,99.4c-0.4,1.5-2.4,2.8-4.9,2.8h-8.3c-2.3,0-3.8-1.2-3.4-2.8l27.9-101.5c2.3-2.5,6.4-3.9,10.2-3.3
			C302.8,111.2,304.9,113.6,304.2,116.2z M453.5,263.6L439,317.5c-4.1,15.2-26.1,27.7-49,27.7c-23.1,0-38.2-12.4-34.1-27.7
			l14.5-53.9c4.1-15.2,25.9-27.7,49-27.7C442.3,235.9,457.6,248.4,453.5,263.6z M465.8,138.4l-14.5,53.9
			c-4.1,15.2-26.1,27.7-49,27.7c-23.1,0-38.2-12.4-34.1-27.7l14.5-53.9c4.1-15.2,25.9-27.7,49-27.7
			C454.6,110.7,469.9,123.1,465.8,138.4z"/>
	</g>
</g>
</svg>
