<?xml version="1.0" encoding="utf-8"?>
<!-- Generator: Adobe Illustrator 21.0.0, SVG Export Plug-In . SVG Version: 6.00 Build 0)  -->
<svg version="1.1" id="Layer_1" xmlns="http://www.w3.org/2000/svg" xmlns:xlink="http://www.w3.org/1999/xlink" x="0px" y="0px"
	 viewBox="0 0 864 864" style="enable-background:new 0 0 864 864;" xml:space="preserve">
<style type="text/css">
	.st0{fill:#FFFFFF;}
</style>
<path class="st0" d="M249,260H57c-6.6,0-12-5.4-12-12V56c0-6.6,5.4-12,12-12h192c6.6,0,12,5.4,12,12v192
	C261,254.6,255.6,260,249,260z"/>
<path class="st0" d="M528,260H336c-6.6,0-12-5.4-12-12V56c0-6.6,5.4-12,12-12h192c6.6,0,12,5.4,12,12v192
	C540,254.6,534.6,260,528,260z"/>
<path class="st0" d="M807,260H615c-6.6,0-12-5.4-12-12V56c0-6.6,5.4-12,12-12h192c6.6,0,12,5.4,12,12v192
	C819,254.6,813.6,260,807,260z"/>
<path class="st0" d="M249,540H57c-6.6,0-12-5.4-12-12V336c0-6.6,5.4-12,12-12h192c6.6,0,12,5.4,12,12v192
	C261,534.6,255.6,540,249,540z"/>
<path class="st0" d="M528,540H336c-6.6,0-12-5.4-12-12V336c0-6.6,5.4-12,12-12h192c6.6,0,12,5.4,12,12v192
	C540,534.6,534.6,540,528,540z"/>
<path class="st0" d="M807,540H615c-6.6,0-12-5.4-12-12V336c0-6.6,5.4-12,12-12h192c6.6,0,12,5.4,12,12v192
	C819,534.6,813.6,540,807,540z"/>
<path class="st0" d="M249,820H57c-6.6,0-12-5.4-12-12V616c0-6.6,5.4-12,12-12h192c6.6,0,12,5.4,12,12v192
	C261,814.6,255.6,820,249,820z"/>
<path class="st0" d="M528,820H336c-6.6,0-12-5.4-12-12V616c0-6.6,5.4-12,12-12h192c6.6,0,12,5.4,12,12v192
	C540,814.6,534.6,820,528,820z"/>
<path class="st0" d="M807,820H615c-6.6,0-12-5.4-12-12V616c0-6.6,5.4-12,12-12h192c6.6,0,12,5.4,12,12v192
	C819,814.6,813.6,820,807,820z"/>
</svg>
